<?xml version="1.0" encoding="UTF-8" standalone="no"?>
<!-- Created with Inkscape (http://www.inkscape.org/) -->

<svg
   width="179.32106mm"
   height="62.756294mm"
   viewBox="0 0 179.32106 62.756294"
   version="1.1"
   id="svg5"
   inkscape:version="1.1 (c4e8f9ed74, 2021-05-24)"
   sodipodi:docname="logo.svg"
   xmlns:inkscape="http://www.inkscape.org/namespaces/inkscape"
   xmlns:sodipodi="http://sodipodi.sourceforge.net/DTD/sodipodi-0.dtd"
   xmlns:xlink="http://www.w3.org/1999/xlink"
   xmlns="http://www.w3.org/2000/svg"
   xmlns:svg="http://www.w3.org/2000/svg">
  <sodipodi:namedview
     id="namedview7"
     pagecolor="#ffffff"
     bordercolor="#666666"
     borderopacity="1.0"
     inkscape:pageshadow="2"
     inkscape:pageopacity="0.0"
     inkscape:pagecheckerboard="0"
     inkscape:document-units="mm"
     showgrid="false"
     inkscape:zoom="0.69130191"
     inkscape:cx="42.673107"
     inkscape:cy="355.85031"
     inkscape:window-width="1920"
     inkscape:window-height="1011"
     inkscape:window-x="0"
     inkscape:window-y="0"
     inkscape:window-maximized="1"
     inkscape:current-layer="layer1" />
  <defs
     id="defs2">
    <linearGradient
       inkscape:collect="always"
       id="linearGradient14327">
      <stop
         style="stop-color:#ff0000;stop-opacity:1"
         offset="0"
         id="stop14323" />
      <stop
         style="stop-color:#0000ff;stop-opacity:1"
         offset="1"
         id="stop14325" />
    </linearGradient>
    <linearGradient
       inkscape:collect="always"
       xlink:href="#linearGradient14327"
       id="linearGradient14329"
       x1="23.630577"
       y1="103.21805"
       x2="75.30854"
       y2="102.68646"
       gradientUnits="userSpaceOnUse" />
    <linearGradient
       inkscape:collect="always"
       xlink:href="#linearGradient14327"
       id="linearGradient14916"
       gradientUnits="userSpaceOnUse"
       x1="23.630577"
       y1="103.21805"
       x2="75.30854"
       y2="102.68646"
       gradientTransform="translate(-1.0609341,4.7469871)" />
    <linearGradient
       inkscape:collect="always"
       xlink:href="#linearGradient14327"
       id="linearGradient14918"
       gradientUnits="userSpaceOnUse"
       x1="23.630577"
       y1="103.21805"
       x2="75.30854"
       y2="102.68646"
       gradientTransform="translate(-1.8688956,5.3336481)" />
    <linearGradient
       inkscape:collect="always"
       xlink:href="#linearGradient14327"
       id="linearGradient14920"
       gradientUnits="userSpaceOnUse"
       x1="23.630577"
       y1="103.21805"
       x2="75.30854"
       y2="102.68646"
       gradientTransform="translate(-1.8170086,5.3283378)" />
    <linearGradient
       inkscape:collect="always"
       xlink:href="#linearGradient14327"
       id="linearGradient14922"
       gradientUnits="userSpaceOnUse"
       x1="23.630577"
       y1="103.21805"
       x2="75.30854"
       y2="102.68646"
       gradientTransform="translate(-0.62102379,3.4860279)" />
    <linearGradient
       inkscape:collect="always"
       xlink:href="#linearGradient14327"
       id="linearGradient14928"
       gradientUnits="userSpaceOnUse"
       x1="23.630577"
       y1="103.21805"
       x2="75.30854"
       y2="102.68646"
       gradientTransform="translate(-0.58216396,2.6492075)" />
    <linearGradient
       inkscape:collect="always"
       xlink:href="#linearGradient14327"
       id="linearGradient14930"
       gradientUnits="userSpaceOnUse"
       x1="23.630577"
       y1="103.21805"
       x2="75.30854"
       y2="102.68646"
       gradientTransform="translate(-0.12138701,0.48076925)" />
    <linearGradient
       inkscape:collect="always"
       xlink:href="#linearGradient14327"
       id="linearGradient15359"
       gradientUnits="userSpaceOnUse"
       x1="23.630577"
       y1="103.21805"
       x2="75.30854"
       y2="102.68646"
       gradientTransform="translate(-0.06349224,6.0650098)" />
    <linearGradient
       inkscape:collect="always"
       xlink:href="#linearGradient14327"
       id="linearGradient15361"
       gradientUnits="userSpaceOnUse"
       x1="23.630577"
       y1="103.21805"
       x2="75.30854"
       y2="102.68646"
       gradientTransform="translate(0.32334196,8.6535986)" />
  </defs>
  <g
     inkscape:label="Layer 1"
     inkscape:groupmode="layer"
     id="layer1"
     transform="translate(-15.145414,-54.24829)">
    <g
       aria-label="SuperFaB"
       transform="matrix(3.2708048,-1.1336643,1.530065,4.4144847,-213.29647,-321.48063)"
       id="text2629"
       style="font-size:10.5833px;line-height:1.25;white-space:pre;inline-size:84.4513;fill:url(#linearGradient14329);stroke-width:0.264583"
       inkscape:transform-center-x="-17.579377"
       inkscape:transform-center-y="-30.984386">
      <path
         d="m 29.17905,96.265146 v 1.018023 q -0.594277,-0.28422 -1.121375,-0.423746 -0.527098,-0.139525 -1.018023,-0.139525 -0.852658,0 -1.317745,0.330728 -0.459918,0.330728 -0.459918,0.940508 0,0.511595 0.30489,0.775144 0.310057,0.258381 1.167883,0.418578 l 0.630451,0.12919 q 1.167883,0.222208 1.720819,0.785474 0.558104,0.55813 0.558104,1.49864 0,1.12137 -0.754473,1.70015 -0.749306,0.57877 -2.201409,0.57877 -0.547769,0 -1.167884,-0.12402 -0.614948,-0.12403 -1.276404,-0.3669 v -1.07487 q 0.635618,0.35657 1.245398,0.53743 0.60978,0.18087 1.19889,0.18087 0.893999,0 1.379756,-0.3514 0.485757,-0.3514 0.485757,-1.00252 0,-0.56844 -0.351399,-0.88883 -0.346231,-0.32039 -1.142045,-0.4806 L 26.424705,100.1822 Q 25.256821,99.949646 24.734891,99.453572 24.21296,98.95748 24.21296,98.073816 q 0,-1.02319 0.7183,-1.6123 0.723468,-0.589109 1.989537,-0.589109 0.542601,0 1.105872,0.09819 0.563271,0.09819 1.152381,0.294554 z"
         id="path14899"
         style="fill:url(#linearGradient14930)" />
      <path
         d="m 30.671636,103.61151 v -3.50367 h 0.950844 v 3.4675 q 0,0.82165 0.320393,1.23506 0.320392,0.40824 0.961178,0.40824 0.769977,0 1.214392,-0.49092 0.449584,-0.49093 0.449584,-1.33842 v -3.28146 h 0.950843 v 5.78776 h -0.950843 v -0.88883 q -0.346231,0.5271 -0.80615,0.78548 -0.454751,0.25321 -1.059363,0.25321 -0.997352,0 -1.514115,-0.62011 -0.516763,-0.62012 -0.516763,-1.81384 z m 2.392612,-3.643177 z"
         id="path14901"
         style="fill:url(#linearGradient14928)" />
      <path
         d="m 38.35838,105.86431 v 3.06957 h -0.95601 v -7.98917 h 0.95601 v 0.8785 q 0.299723,-0.51675 0.754474,-0.7648 0.459919,-0.25322 1.095537,-0.25322 1.054196,0 1.710484,0.83716 0.661457,0.83714 0.661457,2.20142 0,1.36425 -0.661457,2.20141 -0.656288,0.83715 -1.710484,0.83715 -0.635618,0 -1.095537,-0.24805 -0.454751,-0.25321 -0.754474,-0.76997 z m 3.234935,-2.02054 q 0,-1.04905 -0.434081,-1.64333 -0.428913,-0.59944 -1.183386,-0.59944 -0.754474,0 -1.188554,0.59944 -0.428914,0.59428 -0.428914,1.64333 0,1.04902 0.428914,1.64847 0.43408,0.59428 1.188554,0.59428 0.754473,0 1.183386,-0.59428 0.434081,-0.59945 0.434081,-1.64847 z"
         id="path14903"
         style="fill:url(#linearGradient14922)" />
      <path
         d="m 47.911069,105.44322 v 0.46508 h -4.371812 q 0.06201,0.98185 0.589109,1.49862 0.532266,0.51159 1.477941,0.51159 0.547769,0 1.059364,-0.13436 0.516763,-0.13436 1.02319,-0.40307 v 0.89916 q -0.511595,0.21705 -1.049028,0.33073 -0.537433,0.11369 -1.09037,0.11369 -1.384924,0 -2.196241,-0.80615 -0.80615,-0.80615 -0.80615,-2.18074 0,-1.42112 0.764809,-2.25312 0.769976,-0.83716 2.072218,-0.83716 1.167884,0 1.844843,0.75448 0.682127,0.7493 0.682127,2.04125 z m -0.950843,-0.27907 q -0.01034,-0.78032 -0.439249,-1.24541 -0.423745,-0.46509 -1.126542,-0.46509 -0.795815,0 -1.276404,0.44958 -0.475422,0.44959 -0.547769,1.26609 z"
         id="path14905"
         style="fill:url(#linearGradient14920)" />
      <path
         d="m 52.77358,103.68123 q -0.160197,-0.093 -0.351399,-0.13436 -0.186034,-0.0465 -0.41341,-0.0465 -0.80615,0 -1.24023,0.52709 -0.428913,0.52194 -0.428913,1.50378 v 3.0489 h -0.956011 v -5.78773 h 0.956011 v 0.89916 q 0.299722,-0.52709 0.780311,-0.7803 0.480589,-0.25839 1.167884,-0.25839 0.09819,0 0.21704,0.0155 0.118856,0.0103 0.263549,0.0362 z"
         id="path14907"
         style="fill:url(#linearGradient14918)" />
      <path
         d="m 54.620239,100.27816 h 4.433824 v 0.87848 H 55.6641 v 2.27375 h 3.059235 v 0.87851 H 55.6641 v 3.68457 h -1.043861 z"
         id="path14909"
         style="fill:url(#linearGradient14916)" />
      <path
         d="m 63.32262,106.40203 q -1.15238,0 -1.596796,0.26354 -0.444416,0.26355 -0.444416,0.89917 0,0.50643 0.330728,0.80615 0.335896,0.29456 0.909502,0.29456 0.790647,0 1.266069,-0.55811 0.480589,-0.56327 0.480589,-1.49344 v -0.21187 z m 1.89652,-0.39274 v 3.30211 h -0.950844 v -0.8785 q -0.32556,0.5271 -0.811317,0.78031 -0.485757,0.24805 -1.188554,0.24805 -0.888832,0 -1.41593,-0.49609 -0.52193,-0.50126 -0.52193,-1.33842 0,-0.97668 0.651121,-1.47277 0.656288,-0.49608 1.953362,-0.49608 h 1.333248 v -0.093 q 0,-0.65628 -0.43408,-1.01284 -0.428913,-0.36172 -1.209225,-0.36172 -0.496092,0 -0.966346,0.11885 -0.470254,0.11885 -0.904335,0.35656 v -0.87848 q 0.52193,-0.20153 1.012855,-0.29972 0.490924,-0.10336 0.956011,-0.10336 1.255733,0 1.875848,0.65113 0.620116,0.6511 0.620116,1.97399 z"
         id="path14911"
         style="fill:url(#linearGradient15359)" />
      <path
         d="m 68.649707,108.21556 v 2.82669 h 1.674311 q 0.842323,0 1.245398,-0.34623 0.408242,-0.3514 0.408242,-1.0697 0,-0.72346 -0.408242,-1.06453 -0.403075,-0.34623 -1.245398,-0.34623 z m 0,-3.17295 v 2.32545 h 1.54512 q 0.764809,0 1.136878,-0.28422 0.377237,-0.28939 0.377237,-0.8785 0,-0.58395 -0.377237,-0.87334 -0.372069,-0.28939 -1.136878,-0.28939 z m -1.043861,-0.85783 h 2.666496 q 1.193721,0 1.839675,0.49609 0.645953,0.4961 0.645953,1.41078 0,0.70797 -0.330728,1.12655 -0.330728,0.41858 -0.971514,0.52193 0.769976,0.16537 1.193722,0.69248 0.428913,0.52192 0.428913,1.3074 0,1.03353 -0.702797,1.5968 -0.702798,0.56327 -1.999872,0.56327 h -2.769848 z"
         id="path14913"
         style="fill:url(#linearGradient15361)" />
    </g>
  </g>
</svg>
